<mxfile host="app.diagrams.net" agent="Mozilla/5.0 (Windows NT 10.0; Win64; x64) AppleWebKit/537.36 (KHTML, like Gecko) Chrome/130.0.0.0 Safari/537.36" version="24.8.4">
  <diagram name="Page-1" id="O68f2Q7Yjam5VTw899kQ">
    <mxGraphModel dx="1400" dy="1685" grid="1" gridSize="10" guides="1" tooltips="1" connect="1" arrows="1" fold="1" page="1" pageScale="1" pageWidth="850" pageHeight="1100" math="0" shadow="0">
      <root>
        <mxCell id="0" />
        <mxCell id="1" parent="0" />
        <mxCell id="OuCYZ1kZ1UgPZIDO1jOh-1" value="manager" style="shape=umlActor;verticalLabelPosition=bottom;verticalAlign=top;html=1;outlineConnect=0;" parent="1" vertex="1">
          <mxGeometry x="72" y="65" width="20" height="40" as="geometry" />
        </mxCell>
        <mxCell id="OuCYZ1kZ1UgPZIDO1jOh-2" value="&lt;div&gt;&lt;span style=&quot;font-size: 11px;&quot;&gt;&amp;lt;&amp;lt; view Layer &amp;gt;&amp;gt;&lt;/span&gt;&lt;/div&gt;&lt;span style=&quot;font-size: 11px;&quot;&gt;Booking Confirmation&lt;/span&gt;" style="rounded=0;whiteSpace=wrap;html=1;" parent="1" vertex="1">
          <mxGeometry x="172.5" y="50" width="125" height="30" as="geometry" />
        </mxCell>
        <mxCell id="OuCYZ1kZ1UgPZIDO1jOh-3" value="&lt;font style=&quot;font-size: 11px;&quot;&gt;&amp;lt;&amp;lt; controller &amp;gt;&amp;gt;&lt;/font&gt;&lt;div&gt;&lt;font style=&quot;font-size: 11px;&quot;&gt;BookingConfirmationHandler&lt;/font&gt;&lt;/div&gt;" style="rounded=0;whiteSpace=wrap;html=1;" parent="1" vertex="1">
          <mxGeometry x="310" y="65" width="160" height="30" as="geometry" />
        </mxCell>
        <mxCell id="OuCYZ1kZ1UgPZIDO1jOh-8" value="" style="endArrow=none;dashed=1;html=1;dashPattern=1 3;strokeWidth=2;rounded=0;entryX=0.5;entryY=1;entryDx=0;entryDy=0;" parent="1" edge="1">
          <mxGeometry width="50" height="50" relative="1" as="geometry">
            <mxPoint x="80" y="1050" as="sourcePoint" />
            <mxPoint x="84.5" y="130" as="targetPoint" />
          </mxGeometry>
        </mxCell>
        <mxCell id="OuCYZ1kZ1UgPZIDO1jOh-11" value="&amp;nbsp;&lt;span style=&quot;font-size: 11px;&quot;&gt;update booking confirmation (status)&lt;/span&gt;" style="text;html=1;align=center;verticalAlign=middle;whiteSpace=wrap;rounded=0;" parent="1" vertex="1">
          <mxGeometry x="91" y="150" width="130" height="30" as="geometry" />
        </mxCell>
        <mxCell id="OuCYZ1kZ1UgPZIDO1jOh-12" value="" style="endArrow=classic;html=1;rounded=0;entryX=0;entryY=0.1;entryDx=0;entryDy=0;entryPerimeter=0;" parent="1" edge="1">
          <mxGeometry width="50" height="50" relative="1" as="geometry">
            <mxPoint x="240" y="190" as="sourcePoint" />
            <mxPoint x="390" y="189.99999999999994" as="targetPoint" />
          </mxGeometry>
        </mxCell>
        <mxCell id="OuCYZ1kZ1UgPZIDO1jOh-10" value="" style="endArrow=classic;html=1;rounded=0;" parent="1" edge="1">
          <mxGeometry width="50" height="50" relative="1" as="geometry">
            <mxPoint x="85" y="180.64999999999998" as="sourcePoint" />
            <mxPoint x="230" y="181.36" as="targetPoint" />
          </mxGeometry>
        </mxCell>
        <mxCell id="sbfKvWTtOLKOCPMKF29I-3" value="&lt;font style=&quot;font-size: 11px;&quot;&gt;manager&lt;/font&gt;" style="rounded=0;whiteSpace=wrap;html=1;" parent="1" vertex="1">
          <mxGeometry x="690" y="126" width="70" height="24" as="geometry" />
        </mxCell>
        <mxCell id="sbfKvWTtOLKOCPMKF29I-4" value="&lt;font style=&quot;font-size: 11px;&quot;&gt;:person&lt;/font&gt;" style="rounded=0;whiteSpace=wrap;html=1;" parent="1" vertex="1">
          <mxGeometry x="490" y="95" width="70" height="24" as="geometry" />
        </mxCell>
        <mxCell id="sbfKvWTtOLKOCPMKF29I-6" value="&lt;font style=&quot;font-size: 11px;&quot;&gt;:personDA&lt;/font&gt;" style="rounded=0;whiteSpace=wrap;html=1;" parent="1" vertex="1">
          <mxGeometry x="580" y="65" width="70" height="24" as="geometry" />
        </mxCell>
        <mxCell id="sbfKvWTtOLKOCPMKF29I-7" value="&lt;font style=&quot;font-size: 11px;&quot;&gt;:managerDA&lt;/font&gt;" style="rounded=0;whiteSpace=wrap;html=1;" parent="1" vertex="1">
          <mxGeometry x="780" y="86" width="70" height="24" as="geometry" />
        </mxCell>
        <mxCell id="sbfKvWTtOLKOCPMKF29I-9" value="" style="endArrow=none;dashed=1;html=1;rounded=0;" parent="1" source="sbfKvWTtOLKOCPMKF29I-44" edge="1">
          <mxGeometry width="50" height="50" relative="1" as="geometry">
            <mxPoint x="530" y="490" as="sourcePoint" />
            <mxPoint x="530" y="120" as="targetPoint" />
          </mxGeometry>
        </mxCell>
        <mxCell id="sbfKvWTtOLKOCPMKF29I-12" value="" style="endArrow=none;dashed=1;html=1;rounded=0;" parent="1" edge="1">
          <mxGeometry width="50" height="50" relative="1" as="geometry">
            <mxPoint x="618" y="320" as="sourcePoint" />
            <mxPoint x="617.69" y="89" as="targetPoint" />
          </mxGeometry>
        </mxCell>
        <mxCell id="sbfKvWTtOLKOCPMKF29I-13" value="" style="endArrow=classic;html=1;rounded=0;" parent="1" edge="1">
          <mxGeometry width="50" height="50" relative="1" as="geometry">
            <mxPoint x="533" y="268" as="sourcePoint" />
            <mxPoint x="613" y="268" as="targetPoint" />
          </mxGeometry>
        </mxCell>
        <mxCell id="sbfKvWTtOLKOCPMKF29I-15" value="" style="endArrow=none;dashed=1;html=1;rounded=0;" parent="1" edge="1">
          <mxGeometry width="50" height="50" relative="1" as="geometry">
            <mxPoint x="720" y="270" as="sourcePoint" />
            <mxPoint x="720" y="150" as="targetPoint" />
          </mxGeometry>
        </mxCell>
        <mxCell id="sbfKvWTtOLKOCPMKF29I-16" value="&lt;font style=&quot;font-size: 11px;&quot;&gt;booking&lt;/font&gt;" style="rounded=0;whiteSpace=wrap;html=1;" parent="1" vertex="1">
          <mxGeometry x="870" y="132" width="70" height="24" as="geometry" />
        </mxCell>
        <mxCell id="sbfKvWTtOLKOCPMKF29I-17" value="&lt;font style=&quot;font-size: 11px;&quot;&gt;:BookingDA&lt;/font&gt;" style="rounded=0;whiteSpace=wrap;html=1;" parent="1" vertex="1">
          <mxGeometry x="960" y="108" width="70" height="24" as="geometry" />
        </mxCell>
        <mxCell id="sbfKvWTtOLKOCPMKF29I-18" value="" style="endArrow=none;dashed=1;html=1;rounded=0;" parent="1" source="sbfKvWTtOLKOCPMKF29I-36" edge="1">
          <mxGeometry width="50" height="50" relative="1" as="geometry">
            <mxPoint x="394.69" y="466" as="sourcePoint" />
            <mxPoint x="394.69" y="95" as="targetPoint" />
          </mxGeometry>
        </mxCell>
        <mxCell id="sbfKvWTtOLKOCPMKF29I-20" value="" style="endArrow=classic;html=1;rounded=0;" parent="1" edge="1">
          <mxGeometry width="50" height="50" relative="1" as="geometry">
            <mxPoint x="540" y="312.38" as="sourcePoint" />
            <mxPoint x="710" y="311.88" as="targetPoint" />
          </mxGeometry>
        </mxCell>
        <mxCell id="sbfKvWTtOLKOCPMKF29I-21" value="" style="endArrow=none;dashed=1;html=1;rounded=0;" parent="1" edge="1">
          <mxGeometry width="50" height="50" relative="1" as="geometry">
            <mxPoint x="820" y="320" as="sourcePoint" />
            <mxPoint x="820" y="110" as="targetPoint" />
          </mxGeometry>
        </mxCell>
        <mxCell id="sbfKvWTtOLKOCPMKF29I-24" value="" style="endArrow=none;dashed=1;html=1;rounded=0;" parent="1" source="OuCYZ1kZ1UgPZIDO1jOh-13" edge="1">
          <mxGeometry width="50" height="50" relative="1" as="geometry">
            <mxPoint x="234.57" y="457" as="sourcePoint" />
            <mxPoint x="234.57" y="86" as="targetPoint" />
          </mxGeometry>
        </mxCell>
        <mxCell id="sbfKvWTtOLKOCPMKF29I-26" value="" style="endArrow=none;dashed=1;html=1;rounded=0;" parent="1" target="OuCYZ1kZ1UgPZIDO1jOh-13" edge="1">
          <mxGeometry width="50" height="50" relative="1" as="geometry">
            <mxPoint x="235" y="1040" as="sourcePoint" />
            <mxPoint x="234.57" y="86" as="targetPoint" />
          </mxGeometry>
        </mxCell>
        <mxCell id="OuCYZ1kZ1UgPZIDO1jOh-13" value="" style="rounded=0;whiteSpace=wrap;html=1;" parent="1" vertex="1">
          <mxGeometry x="230" y="167.5" width="10" height="332.5" as="geometry" />
        </mxCell>
        <mxCell id="sbfKvWTtOLKOCPMKF29I-32" value="" style="endArrow=classic;html=1;rounded=0;" parent="1" edge="1">
          <mxGeometry width="50" height="50" relative="1" as="geometry">
            <mxPoint x="722" y="351" as="sourcePoint" />
            <mxPoint x="902" y="350" as="targetPoint" />
          </mxGeometry>
        </mxCell>
        <mxCell id="sbfKvWTtOLKOCPMKF29I-33" value="" style="endArrow=none;dashed=1;html=1;rounded=0;" parent="1" edge="1">
          <mxGeometry width="50" height="50" relative="1" as="geometry">
            <mxPoint x="906.7969924812032" y="319" as="sourcePoint" />
            <mxPoint x="906" y="160" as="targetPoint" />
          </mxGeometry>
        </mxCell>
        <mxCell id="sbfKvWTtOLKOCPMKF29I-37" value="" style="endArrow=none;dashed=1;html=1;rounded=0;" parent="1" target="sbfKvWTtOLKOCPMKF29I-36" edge="1" source="PCD-skfdeHrRVYpiaoJP-36">
          <mxGeometry width="50" height="50" relative="1" as="geometry">
            <mxPoint x="395" y="903.5294117647059" as="sourcePoint" />
            <mxPoint x="394.69" y="95" as="targetPoint" />
          </mxGeometry>
        </mxCell>
        <mxCell id="sbfKvWTtOLKOCPMKF29I-36" value="" style="rounded=0;whiteSpace=wrap;html=1;" parent="1" vertex="1">
          <mxGeometry x="391" y="175.75" width="10" height="305.25" as="geometry" />
        </mxCell>
        <mxCell id="sbfKvWTtOLKOCPMKF29I-41" value="" style="endArrow=none;dashed=1;html=1;rounded=0;" parent="1" edge="1">
          <mxGeometry width="50" height="50" relative="1" as="geometry">
            <mxPoint x="994" y="1040" as="sourcePoint" />
            <mxPoint x="994.38" y="134" as="targetPoint" />
          </mxGeometry>
        </mxCell>
        <mxCell id="sbfKvWTtOLKOCPMKF29I-42" value="" style="endArrow=classic;html=1;rounded=0;" parent="1" edge="1">
          <mxGeometry width="50" height="50" relative="1" as="geometry">
            <mxPoint x="912" y="350" as="sourcePoint" />
            <mxPoint x="990" y="350" as="targetPoint" />
          </mxGeometry>
        </mxCell>
        <mxCell id="sbfKvWTtOLKOCPMKF29I-45" value="" style="endArrow=none;dashed=1;html=1;rounded=0;" parent="1" target="sbfKvWTtOLKOCPMKF29I-44" edge="1">
          <mxGeometry width="50" height="50" relative="1" as="geometry">
            <mxPoint x="530" y="1040" as="sourcePoint" />
            <mxPoint x="530" y="119" as="targetPoint" />
          </mxGeometry>
        </mxCell>
        <mxCell id="sbfKvWTtOLKOCPMKF29I-44" value="" style="rounded=0;whiteSpace=wrap;html=1;" parent="1" vertex="1">
          <mxGeometry x="525" y="238" width="10" height="232" as="geometry" />
        </mxCell>
        <mxCell id="OuCYZ1kZ1UgPZIDO1jOh-18" value="" style="endArrow=classic;html=1;rounded=0;" parent="1" edge="1">
          <mxGeometry width="50" height="50" relative="1" as="geometry">
            <mxPoint x="402" y="249.5" as="sourcePoint" />
            <mxPoint x="520" y="250" as="targetPoint" />
          </mxGeometry>
        </mxCell>
        <mxCell id="sbfKvWTtOLKOCPMKF29I-48" value="" style="endArrow=none;dashed=1;html=1;rounded=0;" parent="1" edge="1">
          <mxGeometry width="50" height="50" relative="1" as="geometry">
            <mxPoint x="620" y="1040" as="sourcePoint" />
            <mxPoint x="618" y="320" as="targetPoint" />
          </mxGeometry>
        </mxCell>
        <mxCell id="sbfKvWTtOLKOCPMKF29I-50" value="" style="endArrow=none;dashed=1;html=1;rounded=0;" parent="1" edge="1" source="-OK3QLy-sZZpOdywFpU--37">
          <mxGeometry width="50" height="50" relative="1" as="geometry">
            <mxPoint x="720" y="1040" as="sourcePoint" />
            <mxPoint x="720" y="310" as="targetPoint" />
          </mxGeometry>
        </mxCell>
        <mxCell id="sbfKvWTtOLKOCPMKF29I-54" value="" style="endArrow=none;dashed=1;html=1;rounded=0;" parent="1" edge="1" source="-OK3QLy-sZZpOdywFpU--5">
          <mxGeometry width="50" height="50" relative="1" as="geometry">
            <mxPoint x="820" y="900" as="sourcePoint" />
            <mxPoint x="820" y="324" as="targetPoint" />
          </mxGeometry>
        </mxCell>
        <mxCell id="sbfKvWTtOLKOCPMKF29I-22" value="" style="endArrow=classic;html=1;rounded=0;" parent="1" edge="1">
          <mxGeometry width="50" height="50" relative="1" as="geometry">
            <mxPoint x="725" y="298.8" as="sourcePoint" />
            <mxPoint x="815" y="298.8" as="targetPoint" />
          </mxGeometry>
        </mxCell>
        <mxCell id="PCD-skfdeHrRVYpiaoJP-2" value="&lt;font style=&quot;font-size: 11px;&quot;&gt;bookingConfirmation&lt;/font&gt;" style="rounded=0;whiteSpace=wrap;html=1;" parent="1" vertex="1">
          <mxGeometry x="1055" y="156" width="120" height="24" as="geometry" />
        </mxCell>
        <mxCell id="PCD-skfdeHrRVYpiaoJP-4" value="&lt;font style=&quot;font-size: 11px;&quot;&gt;bookingConfirmationDA&lt;/font&gt;" style="rounded=0;whiteSpace=wrap;html=1;" parent="1" vertex="1">
          <mxGeometry x="1180" y="110" width="120" height="24" as="geometry" />
        </mxCell>
        <mxCell id="PCD-skfdeHrRVYpiaoJP-10" value="" style="rounded=0;whiteSpace=wrap;html=1;" parent="1" vertex="1">
          <mxGeometry x="714" y="270" width="10" height="200" as="geometry" />
        </mxCell>
        <mxCell id="PCD-skfdeHrRVYpiaoJP-14" value="" style="endArrow=none;dashed=1;html=1;rounded=0;" parent="1" source="PCD-skfdeHrRVYpiaoJP-44" target="sbfKvWTtOLKOCPMKF29I-55" edge="1">
          <mxGeometry width="50" height="50" relative="1" as="geometry">
            <mxPoint x="910" y="890" as="sourcePoint" />
            <mxPoint x="934" y="170" as="targetPoint" />
          </mxGeometry>
        </mxCell>
        <mxCell id="sbfKvWTtOLKOCPMKF29I-55" value="" style="rounded=0;whiteSpace=wrap;html=1;" parent="1" vertex="1">
          <mxGeometry x="902" y="323" width="10" height="127" as="geometry" />
        </mxCell>
        <mxCell id="PCD-skfdeHrRVYpiaoJP-15" value="" style="endArrow=none;dashed=1;html=1;rounded=0;entryX=0.5;entryY=1;entryDx=0;entryDy=0;" parent="1" target="PCD-skfdeHrRVYpiaoJP-2" edge="1" source="PCD-skfdeHrRVYpiaoJP-52">
          <mxGeometry width="50" height="50" relative="1" as="geometry">
            <mxPoint x="1115" y="1030" as="sourcePoint" />
            <mxPoint x="1115" y="238" as="targetPoint" />
          </mxGeometry>
        </mxCell>
        <mxCell id="PCD-skfdeHrRVYpiaoJP-16" value="" style="endArrow=none;dashed=1;html=1;rounded=0;" parent="1" edge="1">
          <mxGeometry width="50" height="50" relative="1" as="geometry">
            <mxPoint x="1240" y="1030" as="sourcePoint" />
            <mxPoint x="1239.66" y="134" as="targetPoint" />
          </mxGeometry>
        </mxCell>
        <mxCell id="PCD-skfdeHrRVYpiaoJP-17" value="" style="endArrow=classic;html=1;rounded=0;" parent="1" edge="1">
          <mxGeometry width="50" height="50" relative="1" as="geometry">
            <mxPoint x="915" y="387" as="sourcePoint" />
            <mxPoint x="1110" y="387" as="targetPoint" />
          </mxGeometry>
        </mxCell>
        <mxCell id="PCD-skfdeHrRVYpiaoJP-18" value="update booking confirmation (status)" style="edgeLabel;html=1;align=center;verticalAlign=middle;resizable=0;points=[];" parent="1" vertex="1" connectable="0">
          <mxGeometry x="1008.001167919605" y="375.000195613526" as="geometry" />
        </mxCell>
        <mxCell id="PCD-skfdeHrRVYpiaoJP-19" value="" style="rounded=0;whiteSpace=wrap;html=1;" parent="1" vertex="1">
          <mxGeometry x="1110" y="376" width="10" height="56" as="geometry" />
        </mxCell>
        <mxCell id="PCD-skfdeHrRVYpiaoJP-20" value="save confirmation&amp;nbsp;&lt;div&gt;updates&lt;/div&gt;" style="edgeLabel;html=1;align=center;verticalAlign=middle;resizable=0;points=[];" parent="1" vertex="1" connectable="0">
          <mxGeometry x="1182.001167919605" y="369.000195613526" as="geometry">
            <mxPoint x="-1" y="6" as="offset" />
          </mxGeometry>
        </mxCell>
        <mxCell id="PCD-skfdeHrRVYpiaoJP-21" value="" style="endArrow=classic;html=1;rounded=0;" parent="1" edge="1">
          <mxGeometry width="50" height="50" relative="1" as="geometry">
            <mxPoint x="1121.5" y="399" as="sourcePoint" />
            <mxPoint x="1240" y="399" as="targetPoint" />
          </mxGeometry>
        </mxCell>
        <mxCell id="PCD-skfdeHrRVYpiaoJP-22" value="" style="html=1;labelBackgroundColor=#ffffff;startArrow=none;startFill=0;startSize=6;endArrow=classic;endFill=1;endSize=6;jettySize=auto;orthogonalLoop=1;strokeWidth=1;dashed=1;fontSize=14;rounded=0;" parent="1" edge="1">
          <mxGeometry width="60" height="60" relative="1" as="geometry">
            <mxPoint x="1102" y="417" as="sourcePoint" />
            <mxPoint x="914" y="417" as="targetPoint" />
          </mxGeometry>
        </mxCell>
        <mxCell id="PCD-skfdeHrRVYpiaoJP-23" value="update booking confirmation (status)" style="edgeLabel;html=1;align=center;verticalAlign=middle;resizable=0;points=[];" parent="1" vertex="1" connectable="0">
          <mxGeometry x="1009.001167919605" y="404.000195613526" as="geometry" />
        </mxCell>
        <mxCell id="PCD-skfdeHrRVYpiaoJP-24" value="" style="html=1;labelBackgroundColor=#ffffff;startArrow=none;startFill=0;startSize=6;endArrow=classic;endFill=1;endSize=6;jettySize=auto;orthogonalLoop=1;strokeWidth=1;dashed=1;fontSize=14;rounded=0;" parent="1" edge="1">
          <mxGeometry width="60" height="60" relative="1" as="geometry">
            <mxPoint x="902" y="430" as="sourcePoint" />
            <mxPoint x="730" y="430" as="targetPoint" />
          </mxGeometry>
        </mxCell>
        <mxCell id="PCD-skfdeHrRVYpiaoJP-27" value="" style="html=1;labelBackgroundColor=#ffffff;startArrow=none;startFill=0;startSize=6;endArrow=classic;endFill=1;endSize=6;jettySize=auto;orthogonalLoop=1;strokeWidth=1;dashed=1;fontSize=14;rounded=0;" parent="1" edge="1">
          <mxGeometry width="60" height="60" relative="1" as="geometry">
            <mxPoint x="392" y="470.5" as="sourcePoint" />
            <mxPoint x="242" y="470" as="targetPoint" />
          </mxGeometry>
        </mxCell>
        <mxCell id="PCD-skfdeHrRVYpiaoJP-32" value="" style="endArrow=classic;html=1;rounded=0;" parent="1" edge="1">
          <mxGeometry width="50" height="50" relative="1" as="geometry">
            <mxPoint x="85" y="666" as="sourcePoint" />
            <mxPoint x="230" y="666.71" as="targetPoint" />
          </mxGeometry>
        </mxCell>
        <mxCell id="PCD-skfdeHrRVYpiaoJP-33" value="&lt;span style=&quot;font-size: 11px;&quot;&gt;view booking confirmation&lt;/span&gt;&lt;div&gt;&lt;span style=&quot;font-size: 11px;&quot;&gt;(confirmationID, date, time, status)&lt;/span&gt;&lt;/div&gt;" style="text;html=1;align=center;verticalAlign=middle;whiteSpace=wrap;rounded=0;" parent="1" vertex="1">
          <mxGeometry x="90" y="629" width="130" height="30" as="geometry" />
        </mxCell>
        <mxCell id="PCD-skfdeHrRVYpiaoJP-34" value="" style="endArrow=classic;html=1;rounded=0;" parent="1" edge="1">
          <mxGeometry width="50" height="50" relative="1" as="geometry">
            <mxPoint x="239" y="682.99" as="sourcePoint" />
            <mxPoint x="389" y="682.99" as="targetPoint" />
          </mxGeometry>
        </mxCell>
        <mxCell id="PCD-skfdeHrRVYpiaoJP-39" value="" style="endArrow=classic;html=1;rounded=0;" parent="1" edge="1">
          <mxGeometry width="50" height="50" relative="1" as="geometry">
            <mxPoint x="407.5" y="710.94" as="sourcePoint" />
            <mxPoint x="525" y="710.94" as="targetPoint" />
          </mxGeometry>
        </mxCell>
        <mxCell id="PCD-skfdeHrRVYpiaoJP-43" value="" style="html=1;labelBackgroundColor=#ffffff;startArrow=none;startFill=0;startSize=6;endArrow=classic;endFill=1;endSize=6;jettySize=auto;orthogonalLoop=1;strokeWidth=1;dashed=1;fontSize=14;rounded=0;" parent="1" edge="1">
          <mxGeometry width="60" height="60" relative="1" as="geometry">
            <mxPoint x="1110" y="948.25" as="sourcePoint" />
            <mxPoint x="921.7391304347826" y="948" as="targetPoint" />
          </mxGeometry>
        </mxCell>
        <mxCell id="PCD-skfdeHrRVYpiaoJP-45" value="" style="endArrow=none;dashed=1;html=1;rounded=0;" parent="1" target="PCD-skfdeHrRVYpiaoJP-44" edge="1">
          <mxGeometry width="50" height="50" relative="1" as="geometry">
            <mxPoint x="910" y="1040" as="sourcePoint" />
            <mxPoint x="907" y="450" as="targetPoint" />
          </mxGeometry>
        </mxCell>
        <mxCell id="PCD-skfdeHrRVYpiaoJP-44" value="" style="rounded=0;whiteSpace=wrap;html=1;" parent="1" vertex="1">
          <mxGeometry x="905" y="820" width="10" height="150" as="geometry" />
        </mxCell>
        <mxCell id="PCD-skfdeHrRVYpiaoJP-47" value="" style="endArrow=classic;html=1;rounded=0;" parent="1" edge="1">
          <mxGeometry width="50" height="50" relative="1" as="geometry">
            <mxPoint x="918" y="850" as="sourcePoint" />
            <mxPoint x="993" y="850" as="targetPoint" />
          </mxGeometry>
        </mxCell>
        <mxCell id="PCD-skfdeHrRVYpiaoJP-50" value="" style="endArrow=classic;html=1;rounded=0;" parent="1" edge="1">
          <mxGeometry width="50" height="50" relative="1" as="geometry">
            <mxPoint x="915" y="890" as="sourcePoint" />
            <mxPoint x="1110" y="890" as="targetPoint" />
          </mxGeometry>
        </mxCell>
        <mxCell id="PCD-skfdeHrRVYpiaoJP-51" value="" style="html=1;labelBackgroundColor=#ffffff;startArrow=none;startFill=0;startSize=6;endArrow=classic;endFill=1;endSize=6;jettySize=auto;orthogonalLoop=1;strokeWidth=1;dashed=1;fontSize=14;rounded=0;" parent="1" edge="1">
          <mxGeometry width="60" height="60" relative="1" as="geometry">
            <mxPoint x="902" y="960" as="sourcePoint" />
            <mxPoint x="727" y="960" as="targetPoint" />
          </mxGeometry>
        </mxCell>
        <mxCell id="PCD-skfdeHrRVYpiaoJP-53" value="" style="endArrow=classic;html=1;rounded=0;" parent="1" edge="1">
          <mxGeometry width="50" height="50" relative="1" as="geometry">
            <mxPoint x="1122.75" y="913.5699999999999" as="sourcePoint" />
            <mxPoint x="1241.25" y="913.5699999999999" as="targetPoint" />
          </mxGeometry>
        </mxCell>
        <mxCell id="PCD-skfdeHrRVYpiaoJP-59" value="" style="html=1;labelBackgroundColor=#ffffff;startArrow=none;startFill=0;startSize=6;endArrow=classic;endFill=1;endSize=6;jettySize=auto;orthogonalLoop=1;strokeWidth=1;dashed=1;fontSize=14;rounded=0;" parent="1" edge="1">
          <mxGeometry width="60" height="60" relative="1" as="geometry">
            <mxPoint x="386" y="990.5" as="sourcePoint" />
            <mxPoint x="236" y="990" as="targetPoint" />
          </mxGeometry>
        </mxCell>
        <mxCell id="-OK3QLy-sZZpOdywFpU--1" value="&amp;nbsp;&lt;span style=&quot;font-size: 11px;&quot;&gt;update booking confirmation (status)&lt;/span&gt;" style="text;html=1;align=center;verticalAlign=middle;whiteSpace=wrap;rounded=0;" vertex="1" parent="1">
          <mxGeometry x="249" y="156" width="130" height="30" as="geometry" />
        </mxCell>
        <mxCell id="-OK3QLy-sZZpOdywFpU--2" value="&amp;nbsp;&lt;span style=&quot;font-size: 11px;&quot;&gt;update booking confirmation (status)&lt;/span&gt;" style="text;html=1;align=center;verticalAlign=middle;whiteSpace=wrap;rounded=0;" vertex="1" parent="1">
          <mxGeometry x="402" y="212" width="130" height="30" as="geometry" />
        </mxCell>
        <mxCell id="-OK3QLy-sZZpOdywFpU--3" value="&amp;nbsp;&lt;span style=&quot;font-size: 11px;&quot;&gt;update booking confirmation (status)&lt;/span&gt;" style="text;html=1;align=center;verticalAlign=middle;whiteSpace=wrap;rounded=0;" vertex="1" parent="1">
          <mxGeometry x="560" y="280" width="130" height="30" as="geometry" />
        </mxCell>
        <mxCell id="-OK3QLy-sZZpOdywFpU--4" value="&amp;nbsp;&lt;span style=&quot;font-size: 11px;&quot;&gt;update booking confirmation (status)&lt;/span&gt;" style="text;html=1;align=center;verticalAlign=middle;whiteSpace=wrap;rounded=0;" vertex="1" parent="1">
          <mxGeometry x="750" y="317" width="130" height="30" as="geometry" />
        </mxCell>
        <mxCell id="-OK3QLy-sZZpOdywFpU--6" value="" style="endArrow=none;dashed=1;html=1;rounded=0;" edge="1" parent="1" target="-OK3QLy-sZZpOdywFpU--5">
          <mxGeometry width="50" height="50" relative="1" as="geometry">
            <mxPoint x="820" y="1040" as="sourcePoint" />
            <mxPoint x="820" y="324" as="targetPoint" />
          </mxGeometry>
        </mxCell>
        <mxCell id="-OK3QLy-sZZpOdywFpU--5" value="booking confirmation successfully updated (status)" style="text;html=1;align=center;verticalAlign=middle;whiteSpace=wrap;rounded=0;" vertex="1" parent="1">
          <mxGeometry x="735" y="400" width="170" height="30" as="geometry" />
        </mxCell>
        <mxCell id="-OK3QLy-sZZpOdywFpU--7" value="" style="html=1;labelBackgroundColor=#ffffff;startArrow=none;startFill=0;startSize=6;endArrow=classic;endFill=1;endSize=6;jettySize=auto;orthogonalLoop=1;strokeWidth=1;dashed=1;fontSize=14;rounded=0;" edge="1" parent="1">
          <mxGeometry width="60" height="60" relative="1" as="geometry">
            <mxPoint x="714" y="440" as="sourcePoint" />
            <mxPoint x="542" y="440" as="targetPoint" />
          </mxGeometry>
        </mxCell>
        <mxCell id="-OK3QLy-sZZpOdywFpU--10" value="booking confirmation successfully updated (status)" style="text;html=1;align=center;verticalAlign=middle;whiteSpace=wrap;rounded=0;" vertex="1" parent="1">
          <mxGeometry x="544" y="405" width="170" height="30" as="geometry" />
        </mxCell>
        <mxCell id="-OK3QLy-sZZpOdywFpU--11" value="booking confirmation successfully updated&lt;div&gt;&amp;nbsp;(status)&lt;/div&gt;" style="text;html=1;align=center;verticalAlign=middle;whiteSpace=wrap;rounded=0;" vertex="1" parent="1">
          <mxGeometry x="399" y="419" width="126" height="30" as="geometry" />
        </mxCell>
        <mxCell id="-OK3QLy-sZZpOdywFpU--12" value="" style="html=1;labelBackgroundColor=#ffffff;startArrow=none;startFill=0;startSize=6;endArrow=classic;endFill=1;endSize=6;jettySize=auto;orthogonalLoop=1;strokeWidth=1;dashed=1;fontSize=14;rounded=0;" edge="1" parent="1">
          <mxGeometry width="60" height="60" relative="1" as="geometry">
            <mxPoint x="520" y="460" as="sourcePoint" />
            <mxPoint x="402" y="460" as="targetPoint" />
          </mxGeometry>
        </mxCell>
        <mxCell id="-OK3QLy-sZZpOdywFpU--13" value="booking confirmation successfully updated&lt;div&gt;&amp;nbsp;(status)&lt;/div&gt;" style="text;html=1;align=center;verticalAlign=middle;whiteSpace=wrap;rounded=0;" vertex="1" parent="1">
          <mxGeometry x="264" y="432" width="126" height="30" as="geometry" />
        </mxCell>
        <mxCell id="-OK3QLy-sZZpOdywFpU--14" value="save&amp;nbsp;&lt;div&gt;confirmation&amp;nbsp;&lt;div&gt;updates&lt;/div&gt;&lt;/div&gt;" style="edgeLabel;html=1;align=center;verticalAlign=middle;resizable=0;points=[];" vertex="1" connectable="0" parent="1">
          <mxGeometry x="580.001167919605" y="238.000195613526" as="geometry">
            <mxPoint x="-1" y="1" as="offset" />
          </mxGeometry>
        </mxCell>
        <mxCell id="-OK3QLy-sZZpOdywFpU--15" value="save&amp;nbsp;&lt;div&gt;confirmation&amp;nbsp;&lt;div&gt;updates&lt;/div&gt;&lt;/div&gt;" style="edgeLabel;html=1;align=center;verticalAlign=middle;resizable=0;points=[];" vertex="1" connectable="0" parent="1">
          <mxGeometry x="565.001167919605" y="260.000195613526" as="geometry">
            <mxPoint x="204" y="10" as="offset" />
          </mxGeometry>
        </mxCell>
        <mxCell id="-OK3QLy-sZZpOdywFpU--16" value="save&amp;nbsp;&lt;div&gt;confirmation&amp;nbsp;&lt;div&gt;updates&lt;/div&gt;&lt;/div&gt;" style="edgeLabel;html=1;align=center;verticalAlign=middle;resizable=0;points=[];" vertex="1" connectable="0" parent="1">
          <mxGeometry x="954.001167919605" y="320.000195613526" as="geometry">
            <mxPoint x="-1" y="1" as="offset" />
          </mxGeometry>
        </mxCell>
        <mxCell id="-OK3QLy-sZZpOdywFpU--17" value="" style="endArrow=none;dashed=1;html=1;rounded=0;" edge="1" parent="1" source="PCD-skfdeHrRVYpiaoJP-36">
          <mxGeometry width="50" height="50" relative="1" as="geometry">
            <mxPoint x="399" y="1042" as="sourcePoint" />
            <mxPoint x="398.8746736292428" y="940.2499999999998" as="targetPoint" />
          </mxGeometry>
        </mxCell>
        <mxCell id="-OK3QLy-sZZpOdywFpU--18" value="&lt;span style=&quot;font-size: 11px;&quot;&gt;view booking confirmation&lt;/span&gt;&lt;div&gt;&lt;span style=&quot;font-size: 11px;&quot;&gt;(confirmationID, date, time, status)&lt;/span&gt;&lt;/div&gt;" style="text;html=1;align=center;verticalAlign=middle;whiteSpace=wrap;rounded=0;" vertex="1" parent="1">
          <mxGeometry x="246" y="643" width="130" height="30" as="geometry" />
        </mxCell>
        <mxCell id="-OK3QLy-sZZpOdywFpU--19" value="&lt;span style=&quot;font-size: 11px;&quot;&gt;view booking&amp;nbsp;&lt;/span&gt;&lt;div&gt;&lt;span style=&quot;font-size: 11px;&quot;&gt;confirmation&lt;/span&gt;&lt;div&gt;&lt;span style=&quot;font-size: 11px;&quot;&gt;(confirmationID,&amp;nbsp;&lt;/span&gt;&lt;/div&gt;&lt;div&gt;&lt;span style=&quot;font-size: 11px;&quot;&gt;date, time, status)&lt;/span&gt;&lt;/div&gt;&lt;/div&gt;" style="text;html=1;align=center;verticalAlign=middle;whiteSpace=wrap;rounded=0;" vertex="1" parent="1">
          <mxGeometry x="405" y="666" width="130" height="30" as="geometry" />
        </mxCell>
        <mxCell id="-OK3QLy-sZZpOdywFpU--20" value="" style="endArrow=classic;html=1;rounded=0;" edge="1" parent="1">
          <mxGeometry width="50" height="50" relative="1" as="geometry">
            <mxPoint x="537.5" y="717.75" as="sourcePoint" />
            <mxPoint x="615" y="718" as="targetPoint" />
          </mxGeometry>
        </mxCell>
        <mxCell id="-OK3QLy-sZZpOdywFpU--21" value="" style="endArrow=classic;html=1;rounded=0;" edge="1" parent="1">
          <mxGeometry width="50" height="50" relative="1" as="geometry">
            <mxPoint x="535" y="775" as="sourcePoint" />
            <mxPoint x="713" y="775" as="targetPoint" />
          </mxGeometry>
        </mxCell>
        <mxCell id="-OK3QLy-sZZpOdywFpU--22" value="&lt;span style=&quot;font-size: 11px;&quot;&gt;view booking&amp;nbsp;&lt;/span&gt;&lt;span style=&quot;background-color: initial; font-size: 11px;&quot;&gt;confirmation&lt;/span&gt;&lt;div&gt;&lt;span style=&quot;background-color: initial; font-size: 11px;&quot;&gt;(confirmationID,&lt;/span&gt;&lt;span style=&quot;background-color: initial; font-size: 11px;&quot;&gt;date, time, status)&lt;/span&gt;&lt;/div&gt;" style="text;html=1;align=center;verticalAlign=middle;whiteSpace=wrap;rounded=0;" vertex="1" parent="1">
          <mxGeometry x="528" y="739.5" width="185" height="30" as="geometry" />
        </mxCell>
        <mxCell id="-OK3QLy-sZZpOdywFpU--24" value="" style="endArrow=classic;html=1;rounded=0;" edge="1" parent="1">
          <mxGeometry width="50" height="50" relative="1" as="geometry">
            <mxPoint x="721" y="790" as="sourcePoint" />
            <mxPoint x="817" y="790" as="targetPoint" />
          </mxGeometry>
        </mxCell>
        <mxCell id="-OK3QLy-sZZpOdywFpU--25" value="" style="endArrow=classic;html=1;rounded=0;" edge="1" parent="1">
          <mxGeometry width="50" height="50" relative="1" as="geometry">
            <mxPoint x="724" y="835" as="sourcePoint" />
            <mxPoint x="902" y="835" as="targetPoint" />
          </mxGeometry>
        </mxCell>
        <mxCell id="-OK3QLy-sZZpOdywFpU--26" value="&lt;span style=&quot;font-size: 11px;&quot;&gt;view booking&amp;nbsp;&lt;/span&gt;&lt;span style=&quot;background-color: initial; font-size: 11px;&quot;&gt;confirmation&lt;/span&gt;&lt;div&gt;&lt;span style=&quot;background-color: initial; font-size: 11px;&quot;&gt;(confirmationID,&lt;/span&gt;&lt;span style=&quot;background-color: initial; font-size: 11px;&quot;&gt;date, time, status)&lt;/span&gt;&lt;/div&gt;" style="text;html=1;align=center;verticalAlign=middle;whiteSpace=wrap;rounded=0;" vertex="1" parent="1">
          <mxGeometry x="722" y="804.63" width="185" height="30" as="geometry" />
        </mxCell>
        <mxCell id="-OK3QLy-sZZpOdywFpU--27" value="&lt;span style=&quot;font-size: 11px;&quot;&gt;view booking&amp;nbsp;&lt;/span&gt;&lt;span style=&quot;background-color: initial; font-size: 11px;&quot;&gt;confirmation&lt;/span&gt;&lt;div&gt;&lt;span style=&quot;background-color: initial; font-size: 11px;&quot;&gt;(confirmationID,&lt;/span&gt;&lt;span style=&quot;background-color: initial; font-size: 11px;&quot;&gt;date, time, status)&lt;/span&gt;&lt;/div&gt;" style="text;html=1;align=center;verticalAlign=middle;whiteSpace=wrap;rounded=0;" vertex="1" parent="1">
          <mxGeometry x="925" y="860" width="185" height="30" as="geometry" />
        </mxCell>
        <mxCell id="-OK3QLy-sZZpOdywFpU--30" value="" style="endArrow=none;dashed=1;html=1;rounded=0;entryX=0.5;entryY=1;entryDx=0;entryDy=0;" edge="1" parent="1" target="PCD-skfdeHrRVYpiaoJP-52">
          <mxGeometry width="50" height="50" relative="1" as="geometry">
            <mxPoint x="1115" y="1030" as="sourcePoint" />
            <mxPoint x="1115" y="180" as="targetPoint" />
          </mxGeometry>
        </mxCell>
        <mxCell id="PCD-skfdeHrRVYpiaoJP-52" value="" style="rounded=0;whiteSpace=wrap;html=1;" parent="1" vertex="1">
          <mxGeometry x="1110" y="880" width="10" height="80" as="geometry" />
        </mxCell>
        <mxCell id="-OK3QLy-sZZpOdywFpU--31" value="&lt;span style=&quot;font-size: 11px;&quot;&gt;read booking&amp;nbsp;&lt;/span&gt;&lt;div&gt;&lt;span style=&quot;background-color: initial; font-size: 11px;&quot;&gt;confirmation&lt;/span&gt;&lt;div&gt;&lt;span style=&quot;background-color: initial; font-size: 11px;&quot;&gt;(confirmationID,&lt;/span&gt;&lt;/div&gt;&lt;div&gt;&lt;span style=&quot;background-color: initial; font-size: 11px;&quot;&gt;date, time, status)&lt;/span&gt;&lt;/div&gt;&lt;/div&gt;" style="text;html=1;align=center;verticalAlign=middle;whiteSpace=wrap;rounded=0;" vertex="1" parent="1">
          <mxGeometry x="1116" y="849" width="120" height="60" as="geometry" />
        </mxCell>
        <mxCell id="-OK3QLy-sZZpOdywFpU--33" value="&lt;span style=&quot;font-size: 11px;&quot;&gt;display booking&amp;nbsp;&lt;/span&gt;&lt;span style=&quot;background-color: initial; font-size: 11px;&quot;&gt;confirmation&lt;/span&gt;&lt;div&gt;&lt;span style=&quot;background-color: initial; font-size: 11px;&quot;&gt;(confirmationID,&lt;/span&gt;&lt;span style=&quot;background-color: initial; font-size: 11px;&quot;&gt;date, time, status)&lt;/span&gt;&lt;/div&gt;" style="text;html=1;align=center;verticalAlign=middle;whiteSpace=wrap;rounded=0;" vertex="1" parent="1">
          <mxGeometry x="929" y="916.25" width="185" height="30" as="geometry" />
        </mxCell>
        <mxCell id="-OK3QLy-sZZpOdywFpU--34" value="&lt;span style=&quot;font-size: 11px;&quot;&gt;display&amp;nbsp; booking&amp;nbsp;&lt;/span&gt;&lt;span style=&quot;background-color: initial; font-size: 11px;&quot;&gt;confirmation&lt;/span&gt;&lt;div&gt;&lt;span style=&quot;background-color: initial; font-size: 11px;&quot;&gt;(confirmationID,&lt;/span&gt;&lt;span style=&quot;background-color: initial; font-size: 11px;&quot;&gt;date, time, status)&lt;/span&gt;&lt;/div&gt;" style="text;html=1;align=center;verticalAlign=middle;whiteSpace=wrap;rounded=0;" vertex="1" parent="1">
          <mxGeometry x="728" y="925" width="185" height="30" as="geometry" />
        </mxCell>
        <mxCell id="-OK3QLy-sZZpOdywFpU--35" value="" style="html=1;labelBackgroundColor=#ffffff;startArrow=none;startFill=0;startSize=6;endArrow=classic;endFill=1;endSize=6;jettySize=auto;orthogonalLoop=1;strokeWidth=1;dashed=1;fontSize=14;rounded=0;" edge="1" parent="1">
          <mxGeometry width="60" height="60" relative="1" as="geometry">
            <mxPoint x="716.5" y="970" as="sourcePoint" />
            <mxPoint x="541.5" y="970" as="targetPoint" />
          </mxGeometry>
        </mxCell>
        <mxCell id="-OK3QLy-sZZpOdywFpU--36" value="&lt;span style=&quot;font-size: 11px;&quot;&gt;display&amp;nbsp; booking&amp;nbsp;&lt;/span&gt;&lt;span style=&quot;background-color: initial; font-size: 11px;&quot;&gt;confirmation&lt;/span&gt;&lt;div&gt;&lt;span style=&quot;background-color: initial; font-size: 11px;&quot;&gt;(confirmationID,&lt;/span&gt;&lt;span style=&quot;background-color: initial; font-size: 11px;&quot;&gt;date, time, status)&lt;/span&gt;&lt;/div&gt;" style="text;html=1;align=center;verticalAlign=middle;whiteSpace=wrap;rounded=0;" vertex="1" parent="1">
          <mxGeometry x="536.5" y="930" width="185" height="30" as="geometry" />
        </mxCell>
        <mxCell id="-OK3QLy-sZZpOdywFpU--38" value="" style="endArrow=none;dashed=1;html=1;rounded=0;" edge="1" parent="1" target="-OK3QLy-sZZpOdywFpU--37">
          <mxGeometry width="50" height="50" relative="1" as="geometry">
            <mxPoint x="720" y="1040" as="sourcePoint" />
            <mxPoint x="720" y="310" as="targetPoint" />
          </mxGeometry>
        </mxCell>
        <mxCell id="-OK3QLy-sZZpOdywFpU--37" value="" style="rounded=0;whiteSpace=wrap;html=1;" vertex="1" parent="1">
          <mxGeometry x="714" y="759" width="10" height="231" as="geometry" />
        </mxCell>
        <mxCell id="-OK3QLy-sZZpOdywFpU--39" value="" style="rounded=0;whiteSpace=wrap;html=1;" vertex="1" parent="1">
          <mxGeometry x="526.5" y="699" width="10" height="301" as="geometry" />
        </mxCell>
        <mxCell id="-OK3QLy-sZZpOdywFpU--40" value="" style="html=1;labelBackgroundColor=#ffffff;startArrow=none;startFill=0;startSize=6;endArrow=classic;endFill=1;endSize=6;jettySize=auto;orthogonalLoop=1;strokeWidth=1;dashed=1;fontSize=14;rounded=0;" edge="1" parent="1">
          <mxGeometry width="60" height="60" relative="1" as="geometry">
            <mxPoint x="524" y="980" as="sourcePoint" />
            <mxPoint x="406" y="980" as="targetPoint" />
          </mxGeometry>
        </mxCell>
        <mxCell id="-OK3QLy-sZZpOdywFpU--41" value="&lt;span style=&quot;font-size: 11px;&quot;&gt;display booking&amp;nbsp;&lt;/span&gt;&lt;div&gt;&lt;span style=&quot;font-size: 11px;&quot;&gt;confirmation&lt;/span&gt;&lt;div&gt;&lt;span style=&quot;font-size: 11px;&quot;&gt;(confirmationID,&amp;nbsp;&lt;/span&gt;&lt;/div&gt;&lt;div&gt;&lt;span style=&quot;font-size: 11px;&quot;&gt;date, time, status)&lt;/span&gt;&lt;/div&gt;&lt;/div&gt;" style="text;html=1;align=center;verticalAlign=middle;whiteSpace=wrap;rounded=0;" vertex="1" parent="1">
          <mxGeometry x="409" y="916" width="108" height="60" as="geometry" />
        </mxCell>
        <mxCell id="-OK3QLy-sZZpOdywFpU--42" value="" style="endArrow=none;dashed=1;html=1;rounded=0;" edge="1" parent="1" target="PCD-skfdeHrRVYpiaoJP-36">
          <mxGeometry width="50" height="50" relative="1" as="geometry">
            <mxPoint x="399" y="1042" as="sourcePoint" />
            <mxPoint x="398.8746736292428" y="940.2499999999998" as="targetPoint" />
          </mxGeometry>
        </mxCell>
        <mxCell id="PCD-skfdeHrRVYpiaoJP-36" value="" style="rounded=0;whiteSpace=wrap;html=1;" parent="1" vertex="1">
          <mxGeometry x="395" y="673" width="10" height="337" as="geometry" />
        </mxCell>
        <mxCell id="-OK3QLy-sZZpOdywFpU--44" value="&lt;span style=&quot;font-size: 11px;&quot;&gt;display booking&amp;nbsp;&lt;/span&gt;&lt;div&gt;&lt;span style=&quot;font-size: 11px;&quot;&gt;confirmation&lt;/span&gt;&lt;div&gt;&lt;span style=&quot;font-size: 11px;&quot;&gt;(confirmationID,&amp;nbsp;&lt;/span&gt;&lt;/div&gt;&lt;div&gt;&lt;span style=&quot;font-size: 11px;&quot;&gt;date, time, status)&lt;/span&gt;&lt;/div&gt;&lt;/div&gt;" style="text;html=1;align=center;verticalAlign=middle;whiteSpace=wrap;rounded=0;" vertex="1" parent="1">
          <mxGeometry x="271" y="925" width="108" height="60" as="geometry" />
        </mxCell>
        <mxCell id="-OK3QLy-sZZpOdywFpU--45" value="&lt;span style=&quot;font-size: 11px;&quot;&gt;read booking&amp;nbsp;&lt;/span&gt;&lt;div&gt;&lt;span style=&quot;background-color: initial; font-size: 11px;&quot;&gt;confirmation&lt;/span&gt;&lt;div&gt;&lt;br&gt;&lt;/div&gt;&lt;/div&gt;" style="text;html=1;align=center;verticalAlign=middle;whiteSpace=wrap;rounded=0;" vertex="1" parent="1">
          <mxGeometry x="915" y="824" width="80" height="29" as="geometry" />
        </mxCell>
        <mxCell id="-OK3QLy-sZZpOdywFpU--46" value="&lt;span style=&quot;font-size: 11px;&quot;&gt;read booking&amp;nbsp;&lt;/span&gt;&lt;div&gt;&lt;span style=&quot;background-color: initial; font-size: 11px;&quot;&gt;confirmation&lt;/span&gt;&lt;div&gt;&lt;br&gt;&lt;/div&gt;&lt;/div&gt;" style="text;html=1;align=center;verticalAlign=middle;whiteSpace=wrap;rounded=0;" vertex="1" parent="1">
          <mxGeometry x="728" y="759" width="80" height="29" as="geometry" />
        </mxCell>
        <mxCell id="-OK3QLy-sZZpOdywFpU--47" value="&lt;span style=&quot;font-size: 11px;&quot;&gt;read booking&amp;nbsp;&lt;/span&gt;&lt;div&gt;&lt;span style=&quot;background-color: initial; font-size: 11px;&quot;&gt;confirmation&lt;/span&gt;&lt;div&gt;&lt;br&gt;&lt;/div&gt;&lt;/div&gt;" style="text;html=1;align=center;verticalAlign=middle;whiteSpace=wrap;rounded=0;" vertex="1" parent="1">
          <mxGeometry x="537" y="692" width="80" height="29" as="geometry" />
        </mxCell>
        <mxCell id="-OK3QLy-sZZpOdywFpU--48" value="&lt;b&gt;(Manager) Booking Confirmation&lt;/b&gt;" style="text;html=1;align=center;verticalAlign=middle;whiteSpace=wrap;rounded=0;" vertex="1" parent="1">
          <mxGeometry x="26" y="-10" width="200" height="30" as="geometry" />
        </mxCell>
      </root>
    </mxGraphModel>
  </diagram>
</mxfile>
